<svg width="98" height="31" viewBox="0 0 98 31" fill="none" xmlns="http://www.w3.org/2000/svg">
<path d="M23.2484 0C21.8484 0 20.6484 1.2 20.6484 2.6C20.6484 4 21.8484 5.2 23.2484 5.2C24.6484 5.2 25.8484 4 25.8484 2.6C25.8484 1.2 24.7484 0 23.2484 0ZM17.5484 10.9L20.8484 6.7C21.0484 6.5 21.0484 6.2 20.8484 6L19.4484 3.7C19.3484 3.5 19.1484 3.4 18.8484 3.4H9.6484C9.3484 3.4 9.2484 3.7 9.4484 3.9L10.4484 4.7C10.5484 4.8 10.7484 4.9 10.8484 4.9L16.5484 6L9.5484 13.5L0.348402 14.8C0.0484021 14.8 -0.151598 15.2 0.148402 15.5L1.0484 16.5C1.2484 16.6 1.4484 16.7 1.7484 16.7L10.6484 16.6C10.9484 16.6 11.3484 16.5 11.5484 16.3L13.6484 15L18.1484 18.6C18.3484 18.7 18.4484 18.9 18.4484 19.2L19.3484 25.5C19.3484 25.8 19.6484 26 19.9484 26H20.4484C20.7484 26 21.0484 25.7 21.0484 25.4V18.4C21.0484 18 20.9484 17.7 20.7484 17.4L16.8484 12.1L17.5484 10.9ZM40.1484 19.8L37.0484 14.3H34.6484V19.8H31.3484V4.3H38.6484C41.8484 4.3 43.9484 6.4 43.9484 9.3C43.9484 12 42.1484 13.5 40.5484 13.9L44.0484 19.8H40.1484ZM40.4484 9.3C40.4484 8 39.4484 7.2 38.1484 7.2H34.6484V11.4H38.1484C39.4484 11.4 40.4484 10.6 40.4484 9.3ZM46.3484 19.8V4.3H57.3484V7.2H49.6484V10.5H57.1484V13.4H49.6484V17H57.3484V19.9H46.3484V19.8ZM59.9484 19.8V4.3H67.2484C70.6484 4.3 72.4484 6.6 72.4484 9.3C72.4484 12 70.5484 14.3 67.2484 14.3H63.2484V19.9H59.9484V19.8ZM69.0484 9.3C69.0484 8 68.0484 7.2 66.7484 7.2H63.2484V11.4H66.7484C68.0484 11.4 69.0484 10.6 69.0484 9.3ZM74.4484 19.8V4.3H77.7484V17H84.3484V19.9H74.4484V19.8ZM87.9484 19.8V13.4L81.9484 4.2H85.7484L89.6484 10.4L93.5484 4.2H97.3484L91.3484 13.4V19.8H87.9484ZM32.7484 30.4V24.9H30.7484V23.9H35.8484V24.9H33.8484V30.4H32.7484ZM40.4484 30.4L38.9484 28H37.8484V30.4H36.7484V23.9H39.6484C40.9484 23.9 41.7484 24.7 41.7484 25.9C41.7484 27.1 40.9484 27.7 40.2484 27.8L41.8484 30.4H40.4484ZM40.5484 25.9C40.5484 25.3 40.0484 24.9 39.4484 24.9H37.8484V27H39.4484C40.1484 26.9 40.5484 26.5 40.5484 25.9ZM42.8484 30.4V23.9H43.9484V30.4H42.8484ZM45.3484 30.4V23.9H48.2484C49.6484 23.9 50.3484 24.8 50.3484 25.9C50.3484 27 49.5484 27.9 48.2484 27.9H46.5484V30.3H45.3484V30.4ZM49.1484 25.9C49.1484 25.3 48.6484 24.9 48.0484 24.9H46.4484V27H48.0484C48.7484 26.9 49.1484 26.5 49.1484 25.9ZM51.2484 30.4V23.9H52.3484V29.4H55.2484V30.4H51.2484ZM56.2484 30.4V23.9H60.7484V24.9H57.4484V26.6H60.6484V27.6H57.3484V29.4H60.6484V30.4H56.2484ZM61.4484 29.4L62.0484 28.5C62.5484 29 63.2484 29.4 64.1484 29.4C65.0484 29.4 65.4484 28.9 65.4484 28.5C65.4484 27.1 61.6484 28 61.6484 25.6C61.6484 24.5 62.6484 23.7 64.0484 23.7C65.0484 23.7 65.8484 24 66.5484 24.6L65.8484 25.5C65.3484 25 64.6484 24.7 63.9484 24.7C63.2484 24.7 62.8484 25 62.8484 25.5C62.8484 26.7 66.6484 26 66.6484 28.4C66.6484 29.5 65.8484 30.4 64.1484 30.4C62.9484 30.5 62.0484 30 61.4484 29.4ZM67.6484 30.4V23.9H72.1484V24.9H68.8484V26.6H72.1484V27.6H68.8484V29.4H72.1484V30.4H67.6484ZM77.8484 30.4L74.4484 25.7V30.4H73.3484V23.9H74.5484L77.8484 28.4V23.9H78.9484V30.4H77.8484ZM79.8484 29.4L80.4484 28.5C80.9484 29 81.6484 29.4 82.5484 29.4C83.4484 29.4 83.8484 28.9 83.8484 28.5C83.8484 27.1 80.0484 28 80.0484 25.6C80.0484 24.5 81.0484 23.7 82.4484 23.7C83.4484 23.7 84.2484 24 84.9484 24.6L84.2484 25.5C83.7484 25 83.0484 24.8 82.3484 24.8C81.6484 24.8 81.2484 25.1 81.2484 25.6C81.2484 26.8 85.0484 26.1 85.0484 28.5C85.0484 29.6 84.2484 30.5 82.5484 30.5C81.2484 30.5 80.4484 30 79.8484 29.4ZM86.0484 30.4V23.9H90.5484V24.9H87.2484V26.6H90.5484V27.6H87.2484V29.4H90.5484V30.4H86.0484Z" fill="white"/>
</svg>
